<?xml version="1.0" encoding="UTF-8" standalone="no"?>
<svg width="1400px" height="66px" viewBox="0 0 1400 66" version="1.1" xmlns="http://www.w3.org/2000/svg" xmlns:xlink="http://www.w3.org/1999/xlink">
    <!-- Generator: Sketch 48.2 (47327) - http://www.bohemiancoding.com/sketch -->
    <title>Section_Header_Art_XtraSmall</title>
    <desc>Created with Sketch.</desc>
    <defs></defs>
    <g id="Assets-Export" stroke="none" stroke-width="1" fill="none" fill-rule="evenodd">
        <g id="Section_Header_Art_XtraSmall">
            <path d="M253,37 L1454,37" id="Line" stroke="#FFFFFF" stroke-width="7" stroke-linecap="square"></path>
            <path d="M3,38 L34,38" id="Line" stroke="#FFFFFF" stroke-width="7" stroke-linecap="square"></path>
            <path d="M59.912,41.416 C55.368,41.416 51.272,40.136 48.424,37.64 L52.424,32.872 C54.856,34.728 57.64,35.496 60.264,35.496 C61.608,35.496 62.184,35.144 62.184,34.536 L62.184,34.472 C62.184,33.832 61.48,33.48 59.08,33 C54.056,31.976 49.64,30.536 49.64,25.8 L49.64,25.736 C49.64,21.48 52.968,18.184 59.144,18.184 C63.464,18.184 66.664,19.208 69.256,21.256 L65.608,26.312 C63.496,24.776 60.968,24.104 58.888,24.104 C57.768,24.104 57.256,24.488 57.256,25.032 L57.256,25.096 C57.256,25.704 57.864,26.088 60.232,26.536 C65.96,27.592 69.8,29.256 69.8,33.768 L69.8,33.832 C69.8,38.536 65.928,41.416 59.912,41.416 Z M82.344,41.448 C75.656,41.448 71.336,38.376 71.336,30.952 L71.336,18.6 L78.952,18.6 L78.952,30.856 C78.952,33.64 80.392,34.824 82.408,34.824 C84.424,34.824 85.864,33.736 85.864,31.016 L85.864,18.6 L93.48,18.6 L93.48,30.792 C93.48,38.44 89.032,41.448 82.344,41.448 Z M95.848,41 L95.848,18.6 L108.392,18.6 C111.496,18.6 113.448,19.304 114.76,20.616 C115.56,21.416 116.136,22.568 116.136,24.104 L116.136,24.168 C116.136,26.824 114.536,28.456 112.136,29.288 C115.016,30.12 116.872,31.656 116.872,34.728 L116.872,34.792 C116.872,38.376 113.928,41 108.264,41 L95.848,41 Z M103.144,27.4 L106.408,27.4 C108.008,27.4 108.776,26.856 108.776,25.864 L108.776,25.8 C108.776,24.808 107.976,24.264 106.376,24.264 L103.144,24.264 L103.144,27.4 Z M103.144,35.336 L106.888,35.336 C108.52,35.336 109.352,34.664 109.352,33.704 L109.352,33.64 C109.352,32.68 108.552,32.008 106.92,32.008 L103.144,32.008 L103.144,35.336 Z M128.136,41.416 C123.592,41.416 119.496,40.136 116.648,37.64 L120.648,32.872 C123.08,34.728 125.864,35.496 128.488,35.496 C129.832,35.496 130.408,35.144 130.408,34.536 L130.408,34.472 C130.408,33.832 129.704,33.48 127.304,33 C122.28,31.976 117.864,30.536 117.864,25.8 L117.864,25.736 C117.864,21.48 121.192,18.184 127.368,18.184 C131.688,18.184 134.888,19.208 137.48,21.256 L133.832,26.312 C131.72,24.776 129.192,24.104 127.112,24.104 C125.992,24.104 125.48,24.488 125.48,25.032 L125.48,25.096 C125.48,25.704 126.088,26.088 128.456,26.536 C134.184,27.592 138.024,29.256 138.024,33.768 L138.024,33.832 C138.024,38.536 134.152,41.416 128.136,41.416 Z M150.856,41.48 C144.648,41.48 139.24,36.808 139.24,29.864 L139.24,29.8 C139.24,23.112 144.456,18.12 151.144,18.12 C156.072,18.12 159.4,20.52 161.288,23.944 L155.112,27.56 C154.28,25.96 153.096,24.84 151.048,24.84 C148.52,24.84 146.856,27.048 146.856,29.736 L146.856,29.8 C146.856,32.712 148.584,34.76 151.048,34.76 C153.16,34.76 154.344,33.608 155.272,31.944 L161.448,35.432 C159.56,38.76 156.424,41.48 150.856,41.48 Z M162.888,41 L162.888,18.6 L173.832,18.6 C177.8,18.6 180.328,19.592 181.896,21.16 C183.24,22.504 183.944,24.168 183.944,26.472 L183.944,26.536 C183.944,29.8 182.248,32.072 179.528,33.384 L184.744,41 L176.2,41 L171.976,34.6 L170.376,34.6 L170.376,41 L162.888,41 Z M170.376,29.256 L173.608,29.256 C175.4,29.256 176.488,28.456 176.488,27.08 L176.488,27.016 C176.488,25.576 175.368,24.872 173.64,24.872 L170.376,24.872 L170.376,29.256 Z M185.832,41 L185.832,18.6 L193.32,18.6 L193.32,41 L185.832,41 Z M195.944,41 L195.944,18.6 L208.488,18.6 C211.592,18.6 213.544,19.304 214.856,20.616 C215.656,21.416 216.232,22.568 216.232,24.104 L216.232,24.168 C216.232,26.824 214.632,28.456 212.232,29.288 C215.112,30.12 216.968,31.656 216.968,34.728 L216.968,34.792 C216.968,38.376 214.024,41 208.36,41 L195.944,41 Z M203.24,27.4 L206.504,27.4 C208.104,27.4 208.872,26.856 208.872,25.864 L208.872,25.8 C208.872,24.808 208.072,24.264 206.472,24.264 L203.24,24.264 L203.24,27.4 Z M203.24,35.336 L206.984,35.336 C208.616,35.336 209.448,34.664 209.448,33.704 L209.448,33.64 C209.448,32.68 208.648,32.008 207.016,32.008 L203.24,32.008 L203.24,35.336 Z M218.6,41 L218.6,18.6 L237.704,18.6 L237.704,24.744 L225.96,24.744 L225.96,27.016 L236.904,27.016 L236.904,32.424 L225.96,32.424 L225.96,34.856 L237.864,34.856 L237.864,41 L218.6,41 Z" id="SUBSCRIBE" fill="#FFFFFF"></path>
        </g>
    </g>
</svg>