<?xml version="1.0" encoding="UTF-8" standalone="no"?>
<svg width="1400px" height="66px" viewBox="0 0 1400 66" version="1.1" xmlns="http://www.w3.org/2000/svg" xmlns:xlink="http://www.w3.org/1999/xlink">
    <!-- Generator: Sketch 48.2 (47327) - http://www.bohemiancoding.com/sketch -->
    <title>Section_Header_Art_XtraSmall</title>
    <desc>Created with Sketch.</desc>
    <defs></defs>
    <g id="Assets-Export" stroke="none" stroke-width="1" fill="none" fill-rule="evenodd">
        <g id="Section_Header_Art_XtraSmall">
            <path d="M220,37 L1421,37" id="Line" stroke="#231F20" stroke-width="7" stroke-linecap="square"></path>
            <path d="M3,38 L34,38" id="Line" stroke="#231F20" stroke-width="7" stroke-linecap="square"></path>
            <path d="M50.28,41 L50.28,18.6 L61.224,18.6 C65.192,18.6 67.72,19.592 69.288,21.16 C70.632,22.504 71.336,24.168 71.336,26.472 L71.336,26.536 C71.336,29.8 69.64,32.072 66.92,33.384 L72.136,41 L63.592,41 L59.368,34.6 L57.768,34.6 L57.768,41 L50.28,41 Z M57.768,29.256 L61,29.256 C62.792,29.256 63.88,28.456 63.88,27.08 L63.88,27.016 C63.88,25.576 62.76,24.872 61.032,24.872 L57.768,24.872 L57.768,29.256 Z M73.16,41 L73.16,18.6 L92.264,18.6 L92.264,24.744 L80.52,24.744 L80.52,27.016 L91.464,27.016 L91.464,32.424 L80.52,32.424 L80.52,34.856 L92.424,34.856 L92.424,41 L73.16,41 Z M94.44,41 L94.44,18.6 L101.928,18.6 L101.928,34.6 L112.456,34.6 L112.456,41 L94.44,41 Z M112.456,41 L121.896,18.44 L129.32,18.44 L138.76,41 L130.632,41 L129.448,37.992 L121.608,37.992 L120.456,41 L112.456,41 Z M123.496,32.68 L127.592,32.68 L125.544,27.24 L123.496,32.68 Z M145.416,41 L145.416,24.936 L138.824,24.936 L138.824,18.6 L159.496,18.6 L159.496,24.936 L152.904,24.936 L152.904,41 L145.416,41 Z M161.192,41 L161.192,18.6 L180.296,18.6 L180.296,24.744 L168.552,24.744 L168.552,27.016 L179.496,27.016 L179.496,32.424 L168.552,32.424 L168.552,34.856 L180.456,34.856 L180.456,41 L161.192,41 Z M182.472,41 L182.472,18.6 L191.048,18.6 C199.944,18.6 204.392,22.984 204.392,29.608 L204.392,29.672 C204.392,36.296 199.848,41 190.792,41 L182.472,41 Z M189.96,34.472 L191.208,34.472 C194.632,34.472 196.84,33.064 196.84,29.832 L196.84,29.768 C196.84,26.536 194.632,25.128 191.208,25.128 L189.96,25.128 L189.96,34.472 Z" id="RELATED" fill="#231F20"></path>
        </g>
    </g>
</svg>